<svg width="34" height="34" viewBox="0 0 34 34" fill="none" xmlns="http://www.w3.org/2000/svg">
<path d="M17.0001 29.0769C10.3302 29.0769 4.92322 23.6699 4.92322 17H2.92322C2.92322 24.7744 9.22567 31.0769 17.0001 31.0769V29.0769ZM29.0771 17C29.0771 23.6699 23.67 29.0769 17.0001 29.0769V31.0769C24.7746 31.0769 31.0771 24.7744 31.0771 17H29.0771ZM17.0001 4.92303C23.67 4.92303 29.0771 10.3301 29.0771 17H31.0771C31.0771 9.22549 24.7746 2.92303 17.0001 2.92303V4.92303ZM17.0001 2.92303C9.22567 2.92303 2.92322 9.22549 2.92322 17H4.92322C4.92322 10.3301 10.3302 4.92303 17.0001 4.92303V2.92303Z" fill="#45BAA5"/>
<rect x="16.6038" y="10.2634" width="1.58508" height="12.6807" fill="#45BAA5"/>
<rect x="11.056" y="15.8112" width="12.6807" height="1.58508" fill="#45BAA5"/>
</svg>
