<svg width="136" height="170" viewBox="0 0 136 170" fill="none" xmlns="http://www.w3.org/2000/svg">
<path d="M40.623 23.4331C39.6481 23.9814 37.9909 25.4802 39.1607 27.0887C40.3305 28.6972 40.623 35.9231 40.623 39.335M10.2814 56.882C11.8046 47.8648 16.7153 33.5957 24.1727 48.6568M49.5792 51.3985C51.8944 48.474 57.1463 43.8314 59.6321 48.6568" stroke="#45BAA5" stroke-width="2"/>
<path d="M109.714 95.2659C108.106 98.629 112.578 108.365 115.015 112.813C115.015 114.884 113.662 120.526 108.252 126.521C106.643 134.125 117.33 129.69 122.874 126.521C120.827 121.111 123.727 111.96 125.433 108.061C130.112 105.575 133.354 85.4567 134.389 75.7084C133.658 40.322 89.9737 49.9972 68.2228 59.2581C66.7606 57.0038 64.3113 51.8007 66.2122 49.0224C68.1132 46.2441 74.3155 34.5827 77.1791 29.0993C87.2686 -4.53233 64.0798 10.9431 51.2242 22.8848C46.8375 21.4225 34.0429 21.1788 28.1939 21.2397C13.5714 3.1079 6.99132 0.280892 5.52907 1.13387C-3.8293 7.86019 3.45755 30.1351 8.27078 40.4317C0.667104 65.7285 6.80853 77.4143 10.8297 80.0951C0.776754 95.4486 23.6244 126.521 31.6667 130.543C38.1006 133.759 32.0323 146.384 28.1939 152.293H43.5474C41.6465 149.465 45.3143 146.728 47.3858 145.713V139.316L51.2242 134.015L49.762 143.154L51.2242 145.713C51.2242 146.688 50.4566 149.844 47.3858 154.67C44.3151 155.986 43.5474 162.164 43.5474 165.088C47.264 167.586 55.8303 170.791 60.3633 163.626C60.0708 156.607 69.9897 135.965 74.9857 126.521C93.9949 122.281 107.643 90.8791 112.09 75.7084" stroke="#45BAA5" stroke-width="2"/>
<path d="M11.378 81.009C19.6032 91.4275 41.6831 103.052 64.2016 66.2038C62.0083 63.4621 58.2795 55.3466 60.9116 44.8185C63.5436 34.2903 56.0374 25.8093 51.9553 22.8848M11.378 34.2172C10.0377 25.7484 9.40402 12.5029 17.5926 27.2715L11.378 33.4861M24.3555 60.3548C25.1475 63.4012 28.9615 68.0682 37.8812 62.3654C40.6229 64.4979 46.6913 67.4833 49.0308 62.3654C45.1315 68.519 34.7374 76.732 24.3555 60.3548ZM32.5806 54.8714C34.4084 52.3734 39.4531 48.8762 45.0097 54.8714C42.6945 58.9535 36.9673 64.6685 32.5806 54.8714ZM46.2891 42.0768C47.9342 38.9086 51.736 34.6924 53.7831 43.1735C52.4428 44.6966 49.0674 46.6097 46.2891 42.0768ZM22.5277 40.0662C23.6853 36.9589 26.9875 32.6087 30.9356 40.0662C29.717 41.8331 26.3295 44.3067 22.5277 40.0662Z" stroke="#45BAA5" stroke-width="2"/>
<path d="M60.1805 31.6582C64.6281 27.3933 71.4032 22.8847 62.9222 38.9694M77.9102 70.0422C83.5155 78.6328 92.2402 101.042 82.2969 121.952M76.2652 84.8474C75.2903 90.0262 71.5494 102.467 64.3844 110.802" stroke="#45BAA5" stroke-width="2"/>
<path d="M15.0337 51.5813C13.8151 57.0038 13.8273 67.5198 23.6244 66.2037" stroke="#45BAA5" stroke-width="2"/>
<path d="M42.9991 23.6159C44.4004 23.9815 46.3623 27.4909 42.9991 38.6039M19.0549 23.6159C21.1873 22.3365 24.0265 17.9863 18.3237 10.8213M56.8905 26.1749C58.0481 21.7881 60.9482 13.1609 63.2878 13.7458M21.431 90.8792C18.08 92.3414 13.8273 98.6656 23.6244 112.265" stroke="#45BAA5" stroke-width="2"/>
<path d="M34.4084 130.36C42.268 126.339 57.9871 119.503 57.9871 124.328" stroke="#45BAA5" stroke-width="2"/>
</svg>
