<svg width="251" height="241" viewBox="0 0 251 241" fill="none" xmlns="http://www.w3.org/2000/svg">
<path d="M56.5684 74.7388C56.3854 86.8544 51.7855 111.635 34.8503 113.831M92.6654 52.172C109.441 60.3433 138.368 68.0986 119.875 33.749M107.793 94.5597C106.778 91.3311 106.455 85.2135 113.285 86.5715" stroke="#45BAA5"/>
<path d="M112.985 87.124C114.916 89.7036 116.74 94.8627 108.592 94.8627M89.0705 106.396C88.0553 101.902 88.2817 94.0738 97.3084 98.707" stroke="#45BAA5"/>
<path d="M97.3084 99.2568C97.8575 102.835 97.0887 109.332 89.6197 106.696M248.686 240C256.355 221.268 231.511 196.414 218.131 186.329C177.59 149.862 179.238 186.545 185.129 209.445C190.738 216.135 204.651 231.612 215.435 240" stroke="#45BAA5"/>
<path d="M208.546 207.048C211.441 214.337 216.154 229.875 211.841 233.709M226.22 209.744C231.212 216.135 240.059 230.833 235.506 238.502M35.5496 238.502C37.5633 228.001 48.1211 213.299 74.2428 238.502M25.9637 168.055C67.4361 194.35 151.459 226.549 155.773 144.989M140.495 41.8408C142.193 44.7366 147.266 49.3298 153.976 44.5369" stroke="#45BAA5"/>
<path d="M154.874 46.3342C158.269 53.4238 165.359 75.8209 166.557 108.693C174.845 118.195 191.121 139.477 189.923 148.584C188.724 157.691 199.841 164.161 205.55 166.258L222.325 187.826" stroke="#45BAA5"/>
<path d="M19.0736 77.8369C21.4534 63.4247 31.6151 38.6245 53.2234 54.7208M80.5333 39.7429C75.3242 28.759 74.6819 10.6856 113.784 26.2627M65.2557 94.0131C64.1407 76.4389 71.0272 46.3232 107.494 66.4536M61.3614 129.112C58.3658 126.099 54.9509 116.24 65.2557 100.903" stroke="#45BAA5"/>
<path d="M111.088 68.5508C119.193 67.752 135.402 70.2882 135.402 86.8239M6.34165 194.116C13.348 204.9 28.2095 228.815 31.6045 238.202M93.8131 3.84582L102.7 1C104.714 5.51004 111.018 13.4617 120.124 9.18797" stroke="#45BAA5"/>
<path d="M119.776 9.88403C126.433 17.0069 140.236 29.1158 142.193 20.5683C144.639 9.88403 132.257 44.3334 142.193 41.887" stroke="#45BAA5"/>
<path d="M1 65.9576C14.8463 35.8518 57.2373 -16.2617 116.031 16.1308C135.835 34.8533 170.551 85.9482 150.98 140.548" stroke="#45BAA5"/>
<path d="M150.181 141.342C152.644 155.022 148.543 179.906 112.436 170" stroke="#45BAA5"/>
<path d="M61.4116 134.752C69.4831 140.011 90.6786 144.008 110.889 117.926M110.889 111.636C96.1605 112.168 68.7009 110.387 76.6892 99.0041C84.6774 87.6208 89.1375 83.377 90.3691 82.6781C94.746 79.8655 104.239 74.3503 107.194 74.7897C115.266 78.6673 127.305 91.4652 110.889 111.636Z" stroke="#45BAA5"/>
<path d="M114.034 115.285C126.649 111.074 149.043 97.9202 137.699 78.988M62.9591 136.054L76.639 147.987" stroke="#45BAA5"/>
<path d="M110.389 167.154C126.699 170.932 156.112 170.749 143.291 139.795" stroke="#45BAA5"/>
<path d="M143.541 139.543C140.845 140.009 136.261 129.248 139.497 82.4766M78.9356 139.543C73.8098 153.023 68.6207 179.923 88.871 179.684C91.6669 182.48 99.7217 180.849 103.4 179.684L107.194 178.236V170.347L112.436 159.913" stroke="#45BAA5"/>
<path d="M114.483 149.732C117.395 150.215 122.052 144.021 117.379 115.383" stroke="#45BAA5"/>
<path d="M103.649 149.083C102.092 150.401 110.157 156.056 114.384 158.719L119.077 160.366L128.163 158.719L136.951 153.477L141.344 149.083V138.598C140.346 135.753 137.849 129.841 135.852 128.963C133.855 128.084 133.555 136.851 133.655 141.344L138.348 143.841L124.868 154.575L119.077 156.223L115.782 151.829C112.387 150.364 105.207 147.765 103.649 149.083Z" stroke="#45BAA5"/>
<path d="M20.8212 81.3813C30.9896 74.4915 50.8372 63.6873 48.88 75.5899" stroke="#45BAA5"/>
<path d="M95.4111 47.2309C94.4792 43.8359 95.2614 36.6065 105.846 34.8491" stroke="#45BAA5"/>
<path d="M48.181 75.8863C40.9749 78.2329 25.734 82.5965 22.4189 81.2784M95.9608 47.2284L115.033 30.6028" stroke="#45BAA5"/>
<path d="M37.3464 29.7596C42.1893 29.6431 54.8707 33.4742 66.853 49.7303" stroke="#45BAA5"/>
</svg>
