<svg width="178" height="275" viewBox="0 0 178 275" fill="none" xmlns="http://www.w3.org/2000/svg">
<path d="M129.698 40.4326C117.375 25.7073 79.9453 5.09187 28.8141 40.4326M118.419 40.4326C95.6522 28.4226 41.2836 20.0051 5.94287 82.4153M141.917 39.1793C133.458 29.0492 111.902 8.53822 93.3547 7.53564" stroke="#45BAA5" stroke-width="2"/>
<path d="M40.0927 202.724C42.4947 216.927 45.8575 246.148 40.0927 249.406C32.8867 253.479 107.766 312.694 158.835 227.788C156.746 226.326 152.569 222.775 152.569 220.269" stroke="#45BAA5" stroke-width="2"/>
<path d="M31.007 178.913C27.2474 179.644 19.1015 178.223 16.595 166.694C13.462 152.282 8.76242 151.655 9.07573 140.69C9.32637 131.917 7.92701 131.395 7.196 132.23C-6.79824 98.8113 -1.26319 15.0547 67.977 1.58264" stroke="#45BAA5" stroke-width="2"/>
<path d="M68.2903 1.5828C89.2816 -1.44581 138.846 5.84373 169.174 59.2307C184.463 94.0701 173.874 123.667 166.668 134.11" stroke="#45BAA5" stroke-width="2"/>
<path d="M114.659 127.844C126.669 122.622 152.444 113.495 159.462 118.758M59.5176 138.496C62.024 142.361 67.9768 147.645 71.7364 137.87" stroke="#45BAA5" stroke-width="2"/>
<path d="M128.445 133.484C131.16 138.81 137.342 146.016 140.35 132.231M82.3889 211.497C88.1328 207.946 101.939 201.722 111.213 205.231C114.033 203.142 123.181 199.842 137.217 203.351" stroke="#45BAA5" stroke-width="2"/>
<path d="M82.7021 212.123C93.9811 216.927 120.549 222.024 136.59 203.977M86.1485 162.308C85.4174 170.871 86.4618 187.31 96.4875 184.552C92.4772 173.273 100.456 177.764 104.947 181.419C106.513 183.195 110.586 185.68 114.346 181.419C118.105 174.151 123.641 175.467 125.938 177.033C128.131 177.033 130.262 173.461 121.239 159.175C112.215 144.888 114.764 134.633 117.166 131.291" stroke="#45BAA5" stroke-width="2"/>
<path d="M115.912 250.973C52.75 253.73 31.1111 188.625 28.187 155.728C21.322 126.654 25.3266 103.093 28.187 94.9474C23.926 79.1569 33.722 64.9746 39.1526 59.8573C45.5231 56.9332 68.0392 51.5861 107.14 53.5912C133.708 37.0488 149.122 55.4711 153.509 66.75C154.553 73.225 157.519 91.877 161.028 114.686C168.296 135.99 165.727 170.558 163.534 185.179C161.028 203.037 147.994 241.198 115.912 250.973Z" stroke="#45BAA5" stroke-width="2"/>
<path d="M36.6467 128.158C38.1088 123.562 50.3694 117.129 87.7153 128.158M48.239 138.183C57.5337 134.946 77.7522 130.789 84.2689 140.063C64.7188 151.342 52.1031 143.509 48.239 138.183ZM119.359 138.183C125.312 132.022 140.476 122.393 153.509 133.17C141.729 143.948 125.834 141.003 119.359 138.183Z" stroke="#45BAA5" stroke-width="2"/>
<path d="M56.3848 102.467C63.7996 102.989 83.5169 104.472 103.067 106.226C121.865 106.226 135.964 106.226 140.664 106.226" stroke="#45BAA5" stroke-width="2"/>
</svg>
