<svg width="74" height="82" viewBox="0 0 74 82" fill="none" xmlns="http://www.w3.org/2000/svg">
<path d="M1 54.913C1.86882 50.3572 12.0051 25.6046 19.5928 21.513C23.7825 16.3865 33.3724 5.39628 38.2146 2.44802C40.2901 1.83864 43.8851 1.62971 41.6609 5.66905C38.0408 9.8767 30.4995 19.1567 29.2947 22.6157C28.0899 26.0747 35.4537 19.5108 39.2862 15.7964L51.6524 1.49042C53.8341 0.726274 57.9717 0.289066 57.0681 4.65341C52.7722 10.3603 43.3986 22.3778 40.2708 24.7921" stroke="#45BAA5"/>
<path d="M49.4526 14.8453L60.8479 1.99372C62.9527 0.719882 66.9802 -0.34448 66.2519 5.58878C63.4324 9.65562 57.1767 18.4574 54.7097 21.1296C52.2427 23.8018 47.2792 28.5084 45.1059 30.5277L46.6331 31.2637C52.1056 26.3571 64.0727 15.6832 68.1609 12.241C70.9314 11.0427 75.4504 10.7238 71.3622 19.0348C66.0365 24.6869 54.7919 36.3817 52.4189 37.9443C50.0458 39.5068 47.5729 43.351 46.6331 45.0778L45.1059 48.3048C48.8162 44.3135 57.8522 37.4177 64.3135 41.7658C65.8603 42.5395 66.7218 45.225 57.7935 49.7768C54.4258 52.7868 47.3027 59.6448 45.752 62.9964C38.9677 66.2518 24.4239 72.0945 20.5237 69.4222C17.5671 72.3285 11.6306 78.7128 11.5366 81" stroke="#45BAA5"/>
</svg>
