<svg width="29" height="35" viewBox="0 0 29 35" fill="none" xmlns="http://www.w3.org/2000/svg">
<path d="M20 34C18.9086 31.5205 16.4052 26.5734 15.1233 26.6205C14.107 26.5244 11.8316 26.2203 10.8597 25.7731C10.1019 25.7554 8.28771 25.2917 7.09369 23.5781C5.89966 21.8644 4.67556 20.4591 4.21276 19.9707C3.75189 19.4626 2.77461 18.2217 2.55247 17.3226C2.36735 16.944 1.82587 16.002 1.14093 15.2629C0.847824 14.5136 0.81697 13.142 3.03841 13.6505C3.26516 13.7691 3.54275 13.9219 3.84252 14.0972M5.26563 15.0123C5.93927 15.4962 6.50538 16.0025 6.64246 16.3986C7.24024 17.0048 8.61167 18.3489 9.31512 18.8761L9.80685 19.2233L10.5589 18.3524C10.7922 17.9561 11.4093 17.1425 12.0109 17.0577C12.2982 16.6517 12.9712 15.8243 13.3646 15.7631C13.0946 15.5179 12.5605 14.8898 12.5836 14.339C12.3079 14.1193 11.7356 13.5845 11.6523 13.2032C10.771 13.0345 8.8315 12.4288 8.12341 11.3554L7.63169 11.6732C7.57962 11.8223 7.34013 12.1416 6.79865 12.2263C6.79094 12.4833 6.69221 13.0973 6.35899 13.4974C6.21822 13.9189 5.80248 14.8118 5.26563 15.0123ZM5.26563 15.0123C4.80729 14.683 4.29917 14.3641 3.84252 14.0972M3.84252 14.0972C3.80781 13.1577 3.8055 11.2047 4.07392 10.9081C4.34234 10.6116 4.75655 9.99209 4.9301 9.71943L5.82099 8.90733L6.46891 8.29531L6.79865 7.80099C7.01462 7.3969 7.68028 6.69936 8.61514 7.14189C8.83882 7.16543 9.33132 7.26077 9.51181 7.45379C10.717 7.85984 13.2258 8.77669 13.6192 9.19568C14.5178 9.54877 16.4353 10.2702 16.9166 10.3314C17.3979 10.3926 17.9618 11.0396 18.1835 11.3554" stroke="#45BAA5"/>
<path d="M13.7804 9.65889L13.1577 8.54644C12.4738 8.0879 11.0242 6.72704 10.6969 4.9519C9.98529 4.83029 8.40085 4.45309 7.75569 3.9172C7.56792 3.92119 7.14492 3.89328 6.95517 3.74974C5.63678 4.06473 3 4.19711 3 2.20666C3 1.99533 3.12097 1.57268 3.60484 1.57268C3.76494 1.54876 4.25712 1.49134 4.94497 1.45306C5.14263 1.34341 5.70398 1.12651 6.36812 1.13608C6.51241 1.06032 6.9018 0.935113 7.30503 1.04038C7.64896 1.10418 8.43169 1.21263 8.8112 1.13608L10.1276 1.32148C10.4873 1.47698 11.4737 1.77603 12.541 1.72818C12.7328 1.68831 13.3083 1.9124 14.0769 3.12772C15.5285 4.42438 16.1918 5.43436 16.342 5.77727C16.4804 6.24976 17.1437 7.50575 18.6902 8.74979C19.1369 9.04484 20.0458 10.1218 20.1074 12.0692C20.4348 15.8539 20.9277 18.1638 21.1333 18.8456C21.1886 19.3879 21.7358 21.0729 23.4815 23.4748C24.8592 25.4704 27.6917 29.5694 28 30" stroke="#45BAA5"/>
<path d="M11 2.0465C11.5405 1.9569 13.0155 1.93548 14.5914 2.56655C15.1066 2.5646 16.1889 2.71965 16.3967 3.35539C16.6247 3.86376 17.1289 4.93542 17.3215 5.15512C17.514 5.37483 18.09 5.64791 18.3539 5.75698C18.4574 5.80957 18.6643 6.15082 18.6643 7.09509C18.7466 7.6502 18.9291 8.80834 19 9" stroke="#45BAA5"/>
</svg>
