<svg width="31" height="31" viewBox="0 0 31 31" fill="none" xmlns="http://www.w3.org/2000/svg">
<g clip-path="url(#clip0_164_115)">
<path d="M11.4865 29C11.2154 25.3556 8.93869 14.9993 2 2.72974" stroke="#F9F0F2" stroke-width="3"/>
<path d="M11.5178 29C11.1357 25.8475 14.0972 16.0339 29 2" stroke="#F9F0F2" stroke-width="3"/>
<ellipse cx="13.34" cy="10.1" rx="2.7" ry="2.7" fill="#F9F0F2"/>
</g>
<path d="M15.5 27C9.14873 27 4 21.8513 4 15.5H0C0 24.0604 6.93959 31 15.5 31V27ZM27 15.5C27 21.8513 21.8513 27 15.5 27V31C24.0604 31 31 24.0604 31 15.5H27ZM15.5 4C21.8513 4 27 9.14873 27 15.5H31C31 6.93959 24.0604 0 15.5 0V4ZM15.5 0C6.93959 0 0 6.93959 0 15.5H4C4 9.14873 9.14873 4 15.5 4V0Z" fill="#F9F0F2"/>
<defs>
<clipPath id="clip0_164_115">
<path d="M2 15.5C2 8.04416 8.04416 2 15.5 2V2C22.9558 2 29 8.04416 29 15.5V15.5C29 22.9558 22.9558 29 15.5 29V29C8.04416 29 2 22.9558 2 15.5V15.5Z" fill="white"/>
</clipPath>
</defs>
</svg>
