<svg width="102" height="144" viewBox="0 0 102 144" fill="none" xmlns="http://www.w3.org/2000/svg">
<rect x="0.5" y="0.5" width="101" height="143" stroke="#45BAA5"/>
<path d="M18.6958 103.103L14 115.694C14.9716 120.214 17.0766 122.151 17.0766 122.313C17.0766 122.474 16.9147 127.478 19.3435 129.738C21.2867 131.546 26.5222 131.998 28.8972 131.998C33.647 132.052 44.021 130.997 47.5186 126.348C51.0162 123.636 58.1517 118.116 61.2823 115.694C71.3217 102.135 80.3895 104.556 84.1138 103.91C87.0932 103.394 87.946 99.498 88 97.6147C87.6222 95.9467 86.4779 91.4483 84.9234 86.7993C85.053 83.5708 80.3355 78.7819 77.9606 76.791C73.7505 67.4284 66.14 67.7512 63.5492 67.7512C63.0311 66.9764 58.0438 65.3837 55.6149 64.6842C52.5059 62.6179 52.4843 57.0434 52.8621 54.5144C60.8937 44.3124 63.0095 35.9506 63.0635 33.045C63.6032 29.7089 62.7396 21.487 54.9672 15.2883C50.0446 12.0599 47.0868 11.3604 46.2232 11.4142C38.0621 10.381 33.4311 11.5218 32.1357 12.2213C30.4624 13.1898 26.4359 15.6435 23.7155 17.7097C20.9952 19.7759 20.7469 24.1667 20.9628 26.1038L20.3151 30.4622C18.5015 33.5616 19.7753 36.2735 20.6389 37.242V39.3406L16.267 47.2503C15.7488 49.1874 18.426 49.6717 19.8293 49.6717V53.0616C21.7724 53.3199 20.9628 54.1378 20.3151 54.5144V55.3216L21.9344 56.9358C20.1208 59.1312 21.5026 60.9714 22.4201 61.6171C27.3427 62.1337 29.5449 62.8009 30.0306 63.0699C30.7863 63.1237 32.2976 64.0385 32.2976 67.267C34.3702 67.7835 35.1043 69.7421 35.2123 70.6569V75.8224C33.1612 77.7057 28.6057 82.2471 26.7921 85.3465C26.274 88.3167 23.9854 92.1801 22.9059 93.7405C22.5173 98.3895 19.9373 101.919 18.6958 103.103Z" stroke="#45BAA5"/>
</svg>
