<svg width="174" height="174" viewBox="0 0 174 174" fill="none" xmlns="http://www.w3.org/2000/svg">
<g clip-path="url(#clip0_383_471)">
<path d="M64.473 162.774C62.9517 142.318 50.1725 84.1895 11.2263 15.3215" stroke="#45BAA5" stroke-width="13"/>
<path d="M64.6489 162.774C62.504 145.079 79.1264 89.9965 162.775 11.2256" stroke="#45BAA5" stroke-width="12"/>
<circle cx="74.8765" cy="56.6901" r="15.1548" fill="#45BAA5"/>
</g>
<path d="M87.0005 152.774C50.6744 152.774 21.2263 123.326 21.2263 86.9998H1.22632C1.22632 134.372 39.6287 172.774 87.0005 172.774V152.774ZM152.775 86.9998C152.775 123.326 123.327 152.774 87.0005 152.774V172.774C134.372 172.774 172.775 134.372 172.775 86.9998H152.775ZM87.0005 21.2256C123.327 21.2256 152.775 50.6737 152.775 86.9998H172.775C172.775 39.628 134.372 1.22559 87.0005 1.22559V21.2256ZM87.0005 1.22559C39.6287 1.22559 1.22632 39.628 1.22632 86.9998H21.2263C21.2263 50.6737 50.6744 21.2256 87.0005 21.2256V1.22559Z" fill="#45BAA5"/>
<defs>
<clipPath id="clip0_383_471">
<path d="M11.2263 86.9998C11.2263 45.1509 45.1516 11.2256 87.0005 11.2256V11.2256C128.849 11.2256 162.775 45.1509 162.775 86.9998V86.9998C162.775 128.849 128.849 162.774 87.0005 162.774V162.774C45.1516 162.774 11.2263 128.849 11.2263 86.9998V86.9998Z" fill="white"/>
</clipPath>
</defs>
</svg>
