<svg width="28" height="31" viewBox="0 0 28 31" fill="none" xmlns="http://www.w3.org/2000/svg">
<path d="M1 20.5435C1.31374 18.892 4.97406 9.91917 7.71407 8.43597C9.22701 6.57759 12.69 2.59365 14.4386 1.52491C15.1881 1.30401 16.4863 1.22827 15.6831 2.69253C14.3759 4.2178 11.6526 7.58182 11.2175 8.8357C10.7825 10.0896 13.4416 7.71015 14.8256 6.3637L19.2911 1.17778C20.079 0.900774 21.5731 0.742286 21.2468 2.32436C19.6955 4.39312 16.3106 8.74944 15.1811 9.62463" stroke="#F9F0F2"/>
<path d="M18.4967 6.01893L22.6117 1.36022C23.3718 0.898457 24.8262 0.512626 24.5632 2.66343C23.545 4.13766 21.286 7.3283 20.3951 8.29698C19.5043 9.26566 17.7119 10.9718 16.9271 11.7038L17.4786 11.9706C19.4548 10.1919 23.7762 6.32267 25.2525 5.07488C26.253 4.64048 27.8848 4.52486 26.4085 7.53763C24.4854 9.58651 20.4248 13.8259 19.5679 14.3923C18.711 14.9587 17.818 16.3522 17.4786 16.9782L16.9271 18.148C18.2669 16.7011 21.5299 14.2014 23.8632 15.7776C24.4217 16.0581 24.7328 17.0315 21.5087 18.6816C20.2926 19.7727 17.7204 22.2587 17.1604 23.4737C14.7105 24.6538 9.45862 26.7717 8.05019 25.8031C6.98256 26.8566 4.83881 29.1709 4.80487 30" stroke="#F9F0F2"/>
</svg>
